<svg
  width="1920"
  height="1080"
  viewBox="0 0 1920 1080"
  fill="none"
  xmlns="http://www.w3.org/2000/svg"
  preserveAspectRatio="xMidYMid meet"
  style="width: 100%; height: auto; display: block;"
>
<rect width="1920" height="1080" fill="black"/>
<path d="M448.297 123.35V182H435.292V123.35H448.297ZM469.972 123.35V132.445H447.617V123.35H469.972ZM482.042 123.35V182H469.037V123.35H482.042ZM521.085 138.99C526.412 138.99 530.209 140.917 532.475 144.77C534.742 148.623 535.875 154.148 535.875 161.345C535.875 166.955 535.28 171.347 534.09 174.52C532.9 177.693 531.115 179.932 528.735 181.235C526.412 182.482 523.494 183.105 519.98 183.105C517.034 183.105 514.172 182.68 511.395 181.83C508.675 180.98 506.295 179.563 504.255 177.58L505.02 171.97C506.947 172.537 508.675 173.047 510.205 173.5C511.735 173.897 513.492 174.095 515.475 174.095C517.289 174.095 518.734 173.783 519.81 173.16C520.887 172.537 521.652 171.318 522.105 169.505C522.615 167.635 522.87 164.943 522.87 161.43C522.87 157.973 522.644 155.338 522.19 153.525C521.737 151.655 521 150.38 519.98 149.7C519.017 148.963 517.714 148.595 516.07 148.595C514.2 148.595 512.5 148.963 510.97 149.7C509.44 150.38 507.712 151.372 505.785 152.675L504.17 146.895C505.304 145.365 506.749 144.005 508.505 142.815C510.319 141.625 512.302 140.69 514.455 140.01C516.609 139.33 518.819 138.99 521.085 138.99ZM503.66 140.01L504.935 147.66L506.04 148.935V176.22L505.615 177.24C505.785 178.94 505.899 180.697 505.955 182.51C506.069 184.38 506.097 186.222 506.04 188.035V198.15H493.545V140.01H503.66ZM564.396 138.905C571.536 138.905 576.636 140.123 579.696 142.56C582.756 144.94 584.315 148.51 584.371 153.27C584.428 157.123 583.465 160.013 581.481 161.94C579.498 163.81 576.07 164.745 571.196 164.745H547.651V157.69H567.711C569.581 157.69 570.8 157.293 571.366 156.5C571.933 155.65 572.188 154.488 572.131 153.015C572.131 151.032 571.565 149.672 570.431 148.935C569.355 148.142 567.485 147.745 564.821 147.745C562.498 147.745 560.685 148.057 559.381 148.68C558.135 149.303 557.256 150.493 556.746 152.25C556.236 154.007 555.981 156.557 555.981 159.9C555.981 163.413 556.293 166.133 556.916 168.06C557.54 169.93 558.588 171.233 560.061 171.97C561.591 172.707 563.66 173.075 566.266 173.075C568.25 173.075 570.658 173.018 573.491 172.905C576.381 172.735 579.271 172.48 582.161 172.14L583.266 179.875C581.68 180.668 579.838 181.292 577.741 181.745C575.645 182.198 573.491 182.51 571.281 182.68C569.071 182.907 566.918 183.02 564.821 183.02C559.551 183.02 555.273 182.255 551.986 180.725C548.756 179.138 546.405 176.73 544.931 173.5C543.515 170.27 542.806 166.133 542.806 161.09C542.806 155.593 543.543 151.23 545.016 148C546.49 144.77 548.813 142.447 551.986 141.03C555.16 139.613 559.296 138.905 564.396 138.905ZM630.915 140.01V148.34H614.425C611.875 148.34 610.458 149.672 610.175 152.335C609.608 156.868 608.871 160.863 607.965 164.32C607.058 167.777 605.896 170.922 604.48 173.755C603.12 176.588 601.363 179.337 599.21 182H589.52C591.56 178.487 593.203 174.973 594.45 171.46C595.696 167.89 596.688 164.32 597.425 160.75C598.161 157.18 598.728 153.582 599.125 149.955C599.521 146.668 600.655 144.203 602.525 142.56C604.395 140.86 607.115 140.01 610.685 140.01H630.915ZM597.85 181.575L596.915 193.9H588.585V181.575H597.85ZM638.395 173.33V182H588.585V173.33H638.395ZM638.395 181.575V193.9H630.15L629.215 181.575H638.395ZM631.935 140.01V182H620.035V140.01H631.935ZM684.455 140.01V148.34H667.965C665.415 148.34 663.998 149.672 663.715 152.335C663.148 156.868 662.411 160.863 661.505 164.32C660.598 167.777 659.436 170.922 658.02 173.755C656.66 176.588 654.903 179.337 652.75 182H643.06C645.1 178.487 646.743 174.973 647.99 171.46C649.236 167.89 650.228 164.32 650.965 160.75C651.701 157.18 652.268 153.582 652.665 149.955C653.061 146.668 654.195 144.203 656.065 142.56C657.935 140.86 660.655 140.01 664.225 140.01H684.455ZM651.39 181.575L650.455 193.9H642.125V181.575H651.39ZM691.935 173.33V182H642.125V173.33H691.935ZM691.935 181.575V193.9H683.69L682.755 181.575H691.935ZM685.475 140.01V182H673.575V140.01H685.475ZM740.545 140.01V182L729.24 182.085V160.07C729.24 158.937 729.268 157.832 729.325 156.755C729.438 155.678 729.58 154.517 729.75 153.27H729.41C729.07 154.29 728.588 155.395 727.965 156.585C727.341 157.718 726.746 158.71 726.18 159.56L710.285 182H699.32V140.01H710.54V162.62C710.54 163.64 710.511 164.66 710.455 165.68C710.398 166.643 710.285 167.692 710.115 168.825H710.37C710.823 167.748 711.305 166.757 711.815 165.85C712.381 164.887 712.948 163.98 713.515 163.13L729.665 140.01H740.545ZM764.375 139.075C769.305 139.075 773.271 139.358 776.275 139.925C779.335 140.492 781.545 141.597 782.905 143.24C784.321 144.827 785.03 147.235 785.03 150.465C785.03 153.638 784.321 155.99 782.905 157.52C781.545 159.05 779.221 159.957 775.935 160.24V160.58C779.788 160.807 782.508 161.827 784.095 163.64C785.738 165.453 786.56 168.088 786.56 171.545C786.56 174.832 785.851 177.297 784.435 178.94C783.075 180.527 780.95 181.603 778.06 182.17C775.226 182.737 771.6 183.02 767.18 183.02C764.176 183.02 761.088 182.907 757.915 182.68C754.741 182.453 751.596 182 748.48 181.32L749.33 172.82C752.106 173.103 754.996 173.33 758 173.5C761.003 173.613 763.78 173.67 766.33 173.67C769.22 173.67 771.175 173.387 772.195 172.82C773.215 172.253 773.725 171.035 773.725 169.165C773.725 167.918 773.498 167.012 773.045 166.445C772.648 165.822 771.911 165.397 770.835 165.17C769.758 164.887 768.256 164.745 766.33 164.745L754.175 164.575V156.925L766.245 156.67C767.945 156.67 769.248 156.557 770.155 156.33C771.118 156.103 771.77 155.707 772.11 155.14C772.506 154.517 772.705 153.667 772.705 152.59C772.705 151.4 772.478 150.522 772.025 149.955C771.571 149.388 770.778 149.02 769.645 148.85C768.568 148.623 767.01 148.51 764.97 148.51C762.42 148.51 759.841 148.595 757.235 148.765C754.685 148.935 752.39 149.133 750.35 149.36L749.5 140.86C752.22 140.123 754.911 139.642 757.575 139.415C760.295 139.188 762.561 139.075 764.375 139.075ZM817.128 138.905C820.698 138.905 823.673 139.387 826.053 140.35C828.489 141.257 830.331 142.843 831.578 145.11C832.881 147.32 833.533 150.38 833.533 154.29V182H823.503L821.718 172.905L820.953 171.63V154.205C820.896 152.222 820.386 150.777 819.423 149.87C818.516 148.963 816.788 148.51 814.238 148.51C812.028 148.51 809.308 148.595 806.078 148.765C802.848 148.878 799.533 149.048 796.133 149.275L794.943 140.945C796.983 140.548 799.334 140.208 801.998 139.925C804.661 139.642 807.324 139.415 809.988 139.245C812.651 139.018 815.031 138.905 817.128 138.905ZM828.348 156.16L828.263 163.215L809.648 163.3C808.118 163.3 807.013 163.668 806.333 164.405C805.653 165.142 805.313 166.133 805.313 167.38V169.42C805.313 170.837 805.709 171.942 806.503 172.735C807.353 173.472 808.628 173.84 810.328 173.84C811.801 173.84 813.388 173.528 815.088 172.905C816.844 172.282 818.573 171.403 820.273 170.27C821.973 169.137 823.474 167.805 824.778 166.275V171.715C824.324 172.565 823.588 173.642 822.568 174.945C821.604 176.192 820.358 177.438 818.828 178.685C817.298 179.875 815.484 180.895 813.388 181.745C811.348 182.595 809.024 183.02 806.418 183.02C803.868 183.02 801.573 182.567 799.533 181.66C797.493 180.753 795.878 179.422 794.688 177.665C793.498 175.908 792.903 173.727 792.903 171.12V166.785C792.903 163.442 794.036 160.835 796.303 158.965C798.569 157.095 801.686 156.16 805.653 156.16H828.348ZM884.978 140.01V182L873.673 182.085V160.07C873.673 158.937 873.702 157.832 873.758 156.755C873.872 155.678 874.013 154.517 874.183 153.27H873.843C873.503 154.29 873.022 155.395 872.398 156.585C871.775 157.718 871.18 158.71 870.613 159.56L854.718 182H843.753V140.01H854.973V162.62C854.973 163.64 854.945 164.66 854.888 165.68C854.832 166.643 854.718 167.692 854.548 168.825H854.803C855.257 167.748 855.738 166.757 856.248 165.85C856.815 164.887 857.382 163.98 857.948 163.13L874.098 140.01H884.978ZM870.103 121.48H878.263C878.603 123.803 878.235 125.957 877.158 127.94C876.138 129.923 874.523 131.538 872.313 132.785C870.16 134.032 867.525 134.655 864.408 134.655C861.292 134.655 858.628 134.032 856.418 132.785C854.208 131.538 852.565 129.923 851.488 127.94C850.412 125.957 850.015 123.803 850.298 121.48H858.543C858.373 123.973 858.798 125.787 859.818 126.92C860.895 127.997 862.425 128.535 864.408 128.535C866.335 128.535 867.808 127.997 868.828 126.92C869.848 125.787 870.273 123.973 870.103 121.48ZM908.043 140.01V182H895.633V140.01H908.043ZM924.873 155.565V164.15H907.533V155.565H924.873ZM936.518 140.01V182H924.108V140.01H936.518Z" fill="white"/>
<path d="M1014 292.6L974.4 324.6H970L929.6 292.4L936.2 282.4L972.2 307L1007.2 282.6L1014 292.6Z" fill="white"/>
<mask id="mask0_970_414" style="mask-type:luminance" maskUnits="userSpaceOnUse" x="952" y="105" width="351" height="77">
<path d="M1302.41 105H952V182H1302.41V105Z" fill="white"/>
</mask>
<g mask="url(#mask0_970_414)">
<mask id="mask1_970_414" style="mask-type:luminance" maskUnits="userSpaceOnUse" x="952" y="105" width="351" height="78">
<path d="M1302.4 105.023H952V182.023H1302.4V105.023Z" fill="white"/>
</mask>
<g mask="url(#mask1_970_414)">
<path fill-rule="evenodd" clip-rule="evenodd" d="M984.139 129.351C984.139 149.18 984.249 180.126 984.249 180.126H995.629V129.351C997.199 125.814 1000.44 122.003 1006.12 121.763C1011.68 121.628 1015.56 125.205 1017.19 129.351H1027.77C1026.25 124.499 1024.92 121.932 1019.4 118.192C1011.45 113.493 1006.89 113.077 998.639 115.179L989.939 105.023L981.349 115.179C972.749 112.957 968.199 113.7 960.479 118.192C954.979 122.089 953.489 124.623 952.109 129.351H962.599C965.529 121.793 973.089 121.763 973.089 121.763C973.089 121.763 973.779 121.712 974.319 121.766C976.499 121.78 982.259 123.616 984.139 129.351Z" fill="white"/>
<path d="M1060.46 158.492C1060.46 166.387 1056.63 173.375 1050.75 177.647V180.476H1060.46V158.492Z" fill="white"/>
<path fill-rule="evenodd" clip-rule="evenodd" d="M1050.76 177.615C1056.64 173.343 1060.47 166.355 1060.47 158.46C1060.47 145.456 1050.08 134.914 1037.26 134.914C1024.44 134.914 1014.05 145.456 1014.05 158.46C1014.05 171.465 1024.44 182.007 1037.26 182.007C1042.3 182.007 1046.96 180.38 1050.76 177.615ZM1037.26 172.187C1044.78 172.187 1050.87 166.091 1050.87 158.572C1050.87 151.053 1044.78 144.957 1037.26 144.957C1029.74 144.957 1023.64 151.053 1023.64 158.572C1023.64 166.091 1029.74 172.187 1037.26 172.187Z" fill="white"/>
<path d="M1150.41 158.492C1150.41 166.387 1146.58 173.375 1140.7 177.647V180.476H1150.41V158.492Z" fill="white"/>
<path fill-rule="evenodd" clip-rule="evenodd" d="M1140.71 177.615C1146.59 173.343 1150.42 166.355 1150.42 158.46C1150.42 145.456 1140.02 134.914 1127.2 134.914C1114.38 134.914 1103.99 145.456 1103.99 158.46C1103.99 171.465 1114.38 182.007 1127.2 182.007C1132.24 182.007 1136.9 180.38 1140.71 177.615ZM1127.2 172.187C1134.72 172.187 1140.82 166.091 1140.82 158.572C1140.82 151.053 1134.72 144.957 1127.2 144.957C1119.68 144.957 1113.59 151.053 1113.59 158.572C1113.59 166.091 1119.68 172.187 1127.2 172.187Z" fill="white"/>
<path d="M1157.33 158.497C1157.33 150.602 1161.16 143.614 1167.04 139.342V122.117H1157.33V158.497Z" fill="white"/>
<path fill-rule="evenodd" clip-rule="evenodd" d="M1167.04 139.306C1161.16 143.578 1157.33 150.565 1157.33 158.46C1157.33 171.465 1167.72 182.007 1180.54 182.007C1193.36 182.007 1203.76 171.465 1203.76 158.46C1203.76 145.456 1193.36 134.914 1180.54 134.914C1175.51 134.914 1170.84 136.541 1167.04 139.306ZM1180.54 172.187C1188.06 172.187 1194.16 166.091 1194.16 158.572C1194.16 151.053 1188.06 144.957 1180.54 144.957C1173.02 144.957 1166.93 151.053 1166.93 158.572C1166.93 166.091 1173.02 172.187 1180.54 172.187Z" fill="white"/>
<path fill-rule="evenodd" clip-rule="evenodd" d="M1220.39 139.204C1214.51 143.476 1210.68 150.464 1210.68 158.359C1210.68 171.363 1221.07 181.905 1233.89 181.905C1243.94 181.905 1252.49 175.432 1255.72 166.373H1244.27C1242.25 169.05 1238.68 171.75 1233.89 171.75C1225.97 171.75 1221.84 164.05 1221.84 161.818H1246.16H1256.85C1257.02 160.689 1257.1 159.534 1257.1 158.359C1257.1 145.355 1246.71 134.812 1233.89 134.812C1228.85 134.812 1224.19 136.44 1220.39 139.204ZM1245.94 153.895H1221.61C1221.28 151.552 1225.85 143.963 1233.89 143.963C1241.81 143.963 1245.94 151.663 1245.94 153.895Z" fill="white"/>
<path d="M1098.08 180.662H1067.39V170.396L1086.03 145.956H1067.95V136.359H1097.07V147.072L1078.33 171.065H1098.08V180.662Z" fill="white"/>
<path d="M1263.57 122.328H1273.28V157.034L1288.12 136.501H1299.06L1283.99 157.034L1302.29 180.803H1289.68L1273.28 157.034V180.803H1263.57V122.328Z" fill="white"/>
</g>
</g>
<g clip-path="url(#clip0_970_414)">
<g clip-path="url(#clip1_970_414)">
<path d="M1269 379H709V939H1269V379Z" fill="white"/>
<path d="M944.205 434.992H926.285V452.912H944.205V434.992Z" fill="black"/>
<path d="M1033.8 434.992H1015.88V452.912H1033.8V434.992Z" fill="black"/>
<path d="M1069.63 434.992H1051.71V452.912H1069.63V434.992Z" fill="black"/>
<path d="M926.277 452.938H908.357V470.858H926.277V452.938Z" fill="black"/>
<path d="M944.205 452.938H926.285V470.858H944.205V452.938Z" fill="black"/>
<path d="M980.035 452.938H962.115V470.858H980.035V452.938Z" fill="black"/>
<path d="M997.963 452.938H980.043V470.858H997.963V452.938Z" fill="black"/>
<path d="M1015.88 452.938H997.957V470.858H1015.88V452.938Z" fill="black"/>
<path d="M1033.8 452.938H1015.88V470.858H1033.8V452.938Z" fill="black"/>
<path d="M944.205 470.836H926.285V488.756H944.205V470.836Z" fill="black"/>
<path d="M962.119 470.836H944.199V488.756H962.119V470.836Z" fill="black"/>
<path d="M980.035 470.836H962.115V488.756H980.035V470.836Z" fill="black"/>
<path d="M926.277 488.766H908.357V506.686H926.277V488.766Z" fill="black"/>
<path d="M944.205 488.766H926.285V506.686H944.205V488.766Z" fill="black"/>
<path d="M980.035 488.766H962.115V506.686H980.035V488.766Z" fill="black"/>
<path d="M1015.88 488.766H997.957V506.686H1015.88V488.766Z" fill="black"/>
<path d="M1051.72 488.766H1033.8V506.686H1051.72V488.766Z" fill="black"/>
<path d="M1069.63 488.766H1051.71V506.686H1069.63V488.766Z" fill="black"/>
<path d="M962.119 506.664H944.199V524.584H962.119V506.664Z" fill="black"/>
<path d="M997.963 506.664H980.043V524.584H997.963V506.664Z" fill="black"/>
<path d="M1051.72 506.664H1033.8V524.584H1051.72V506.664Z" fill="black"/>
<path d="M1069.63 506.664H1051.71V524.584H1069.63V506.664Z" fill="black"/>
<path d="M926.277 524.594H908.357V542.514H926.277V524.594Z" fill="black"/>
<path d="M962.119 524.594H944.199V542.514H962.119V524.594Z" fill="black"/>
<path d="M1015.88 524.594H997.957V542.514H1015.88V524.594Z" fill="black"/>
<path d="M1033.8 524.594H1015.88V542.514H1033.8V524.594Z" fill="black"/>
<path d="M1051.72 524.594H1033.8V542.514H1051.72V524.594Z" fill="black"/>
<path d="M926.277 542.539H908.357V560.459H926.277V542.539Z" fill="black"/>
<path d="M962.119 542.539H944.199V560.459H962.119V542.539Z" fill="black"/>
<path d="M997.963 542.539H980.043V560.459H997.963V542.539Z" fill="black"/>
<path d="M1033.8 542.539H1015.88V560.459H1033.8V542.539Z" fill="black"/>
<path d="M1069.63 542.539H1051.71V560.459H1069.63V542.539Z" fill="black"/>
<path d="M997.963 560.438H980.043V578.358H997.963V560.438Z" fill="black"/>
<path d="M1069.63 560.438H1051.71V578.358H1069.63V560.438Z" fill="black"/>
<path d="M782.922 578.367H765.002V596.287H782.922V578.367Z" fill="black"/>
<path d="M800.836 578.367H782.916V596.287H800.836V578.367Z" fill="black"/>
<path d="M818.762 578.367H800.842V596.287H818.762V578.367Z" fill="black"/>
<path d="M836.68 578.367H818.76V596.287H836.68V578.367Z" fill="black"/>
<path d="M854.604 578.367H836.684V596.287H854.604V578.367Z" fill="black"/>
<path d="M890.438 578.367H872.518V596.287H890.438V578.367Z" fill="black"/>
<path d="M908.361 578.367H890.441V596.287H908.361V578.367Z" fill="black"/>
<path d="M926.277 578.367H908.357V596.287H926.277V578.367Z" fill="black"/>
<path d="M944.205 578.367H926.285V596.287H944.205V578.367Z" fill="black"/>
<path d="M962.119 578.367H944.199V596.287H962.119V578.367Z" fill="black"/>
<path d="M997.963 578.367H980.043V596.287H997.963V578.367Z" fill="black"/>
<path d="M1015.88 578.367H997.957V596.287H1015.88V578.367Z" fill="black"/>
<path d="M1033.8 578.367H1015.88V596.287H1033.8V578.367Z" fill="black"/>
<path d="M1051.72 578.367H1033.8V596.287H1051.72V578.367Z" fill="black"/>
<path d="M1087.56 578.367H1069.64V596.287H1087.56V578.367Z" fill="black"/>
<path d="M1123.4 578.367H1105.48V596.287H1123.4V578.367Z" fill="black"/>
<path d="M1159.24 578.367H1141.32V596.287H1159.24V578.367Z" fill="black"/>
<path d="M1195.08 578.367H1177.16V596.287H1195.08V578.367Z" fill="black"/>
<path d="M800.836 596.266H782.916V614.186H800.836V596.266Z" fill="black"/>
<path d="M836.68 596.266H818.76V614.186H836.68V596.266Z" fill="black"/>
<path d="M854.604 596.266H836.684V614.186H854.604V596.266Z" fill="black"/>
<path d="M872.52 596.266H854.6V614.186H872.52V596.266Z" fill="black"/>
<path d="M908.361 596.266H890.441V614.186H908.361V596.266Z" fill="black"/>
<path d="M926.277 596.266H908.357V614.186H926.277V596.266Z" fill="black"/>
<path d="M944.205 596.266H926.285V614.186H944.205V596.266Z" fill="black"/>
<path d="M1033.8 596.266H1015.88V614.186H1033.8V596.266Z" fill="black"/>
<path d="M1051.72 596.266H1033.8V614.186H1051.72V596.266Z" fill="black"/>
<path d="M1069.63 596.266H1051.71V614.186H1069.63V596.266Z" fill="black"/>
<path d="M1087.56 596.266H1069.64V614.186H1087.56V596.266Z" fill="black"/>
<path d="M1123.4 596.266H1105.48V614.186H1123.4V596.266Z" fill="black"/>
<path d="M1141.32 596.266H1123.4V614.186H1141.32V596.266Z" fill="black"/>
<path d="M1213 596.266H1195.08V614.186H1213V596.266Z" fill="black"/>
<path d="M800.836 614.195H782.916V632.115H800.836V614.195Z" fill="black"/>
<path d="M818.762 614.195H800.842V632.115H818.762V614.195Z" fill="black"/>
<path d="M854.604 614.195H836.684V632.115H854.604V614.195Z" fill="black"/>
<path d="M890.438 614.195H872.518V632.115H890.438V614.195Z" fill="black"/>
<path d="M944.205 614.195H926.285V632.115H944.205V614.195Z" fill="black"/>
<path d="M980.035 614.195H962.115V632.115H980.035V614.195Z" fill="black"/>
<path d="M997.963 614.195H980.043V632.115H997.963V614.195Z" fill="black"/>
<path d="M1015.88 614.195H997.957V632.115H1015.88V614.195Z" fill="black"/>
<path d="M1051.72 614.195H1033.8V632.115H1051.72V614.195Z" fill="black"/>
<path d="M1087.56 614.195H1069.64V632.115H1087.56V614.195Z" fill="black"/>
<path d="M1105.48 614.195H1087.56V632.115H1105.48V614.195Z" fill="black"/>
<path d="M1141.32 614.195H1123.4V632.115H1141.32V614.195Z" fill="black"/>
<path d="M1177.16 614.195H1159.24V632.115H1177.16V614.195Z" fill="black"/>
<path d="M836.68 632.133H818.76V650.053H836.68V632.133Z" fill="black"/>
<path d="M854.604 632.133H836.684V650.053H854.604V632.133Z" fill="black"/>
<path d="M908.361 632.133H890.441V650.053H908.361V632.133Z" fill="black"/>
<path d="M926.277 632.133H908.357V650.053H926.277V632.133Z" fill="black"/>
<path d="M944.205 632.133H926.285V650.053H944.205V632.133Z" fill="black"/>
<path d="M962.119 632.133H944.199V650.053H962.119V632.133Z" fill="black"/>
<path d="M980.035 632.133H962.115V650.053H980.035V632.133Z" fill="black"/>
<path d="M1033.8 632.133H1015.88V650.053H1033.8V632.133Z" fill="black"/>
<path d="M1069.63 632.133H1051.71V650.053H1069.63V632.133Z" fill="black"/>
<path d="M1087.56 632.133H1069.64V650.053H1087.56V632.133Z" fill="black"/>
<path d="M782.922 650.031H765.002V667.951H782.922V650.031Z" fill="black"/>
<path d="M818.762 650.031H800.842V667.951H818.762V650.031Z" fill="black"/>
<path d="M836.68 650.031H818.76V667.951H836.68V650.031Z" fill="black"/>
<path d="M854.604 650.031H836.684V667.951H854.604V650.031Z" fill="black"/>
<path d="M872.52 650.031H854.6V667.951H872.52V650.031Z" fill="black"/>
<path d="M890.438 650.031H872.518V667.951H890.438V650.031Z" fill="black"/>
<path d="M926.277 650.031H908.357V667.951H926.277V650.031Z" fill="black"/>
<path d="M944.205 650.031H926.285V667.951H944.205V650.031Z" fill="black"/>
<path d="M980.035 650.031H962.115V667.951H980.035V650.031Z" fill="black"/>
<path d="M1051.72 650.031H1033.8V667.951H1051.72V650.031Z" fill="black"/>
<path d="M1105.48 650.031H1087.56V667.951H1105.48V650.031Z" fill="black"/>
<path d="M1123.4 650.031H1105.48V667.951H1123.4V650.031Z" fill="black"/>
<path d="M1141.32 650.031H1123.4V667.951H1141.32V650.031Z" fill="black"/>
<path d="M1159.24 650.031H1141.32V667.951H1159.24V650.031Z" fill="black"/>
<path d="M1195.08 650.031H1177.16V667.951H1195.08V650.031Z" fill="black"/>
<path d="M1213 650.031H1195.08V667.951H1213V650.031Z" fill="black"/>
<path d="M782.922 667.969H765.002V685.889H782.922V667.969Z" fill="black"/>
<path d="M818.762 667.969H800.842V685.889H818.762V667.969Z" fill="black"/>
<path d="M836.68 667.969H818.76V685.889H836.68V667.969Z" fill="black"/>
<path d="M854.604 667.969H836.684V685.889H854.604V667.969Z" fill="black"/>
<path d="M944.205 667.969H926.285V685.889H944.205V667.969Z" fill="black"/>
<path d="M962.119 667.969H944.199V685.889H962.119V667.969Z" fill="black"/>
<path d="M997.963 667.969H980.043V685.889H997.963V667.969Z" fill="black"/>
<path d="M1069.63 667.969H1051.71V685.889H1069.63V667.969Z" fill="black"/>
<path d="M1087.56 667.969H1069.64V685.889H1087.56V667.969Z" fill="black"/>
<path d="M1105.48 667.969H1087.56V685.889H1105.48V667.969Z" fill="black"/>
<path d="M1123.4 667.969H1105.48V685.889H1123.4V667.969Z" fill="black"/>
<path d="M1141.32 667.969H1123.4V685.889H1141.32V667.969Z" fill="black"/>
<path d="M782.922 685.867H765.002V703.787H782.922V685.867Z" fill="black"/>
<path d="M836.68 685.867H818.76V703.787H836.68V685.867Z" fill="black"/>
<path d="M854.604 685.867H836.684V703.787H854.604V685.867Z" fill="black"/>
<path d="M890.438 685.867H872.518V703.787H890.438V685.867Z" fill="black"/>
<path d="M908.361 685.867H890.441V703.787H908.361V685.867Z" fill="black"/>
<path d="M926.277 685.867H908.357V703.787H926.277V685.867Z" fill="black"/>
<path d="M944.205 685.867H926.285V703.787H944.205V685.867Z" fill="black"/>
<path d="M1015.88 685.867H997.957V703.787H1015.88V685.867Z" fill="black"/>
<path d="M1087.56 685.867H1069.64V703.787H1087.56V685.867Z" fill="black"/>
<path d="M1105.48 685.867H1087.56V703.787H1105.48V685.867Z" fill="black"/>
<path d="M1141.32 685.867H1123.4V703.787H1141.32V685.867Z" fill="black"/>
<path d="M1177.16 685.867H1159.24V703.787H1177.16V685.867Z" fill="black"/>
<path d="M1195.08 685.867H1177.16V703.787H1195.08V685.867Z" fill="black"/>
<path d="M1213 685.867H1195.08V703.787H1213V685.867Z" fill="black"/>
<path d="M782.922 703.805H765.002V721.725H782.922V703.805Z" fill="black"/>
<path d="M836.68 703.805H818.76V721.725H836.68V703.805Z" fill="black"/>
<path d="M872.52 703.805H854.6V721.725H872.52V703.805Z" fill="black"/>
<path d="M908.361 703.805H890.441V721.725H908.361V703.805Z" fill="black"/>
<path d="M926.277 703.805H908.357V721.725H926.277V703.805Z" fill="black"/>
<path d="M944.205 703.805H926.285V721.725H944.205V703.805Z" fill="black"/>
<path d="M962.119 703.805H944.199V721.725H962.119V703.805Z" fill="black"/>
<path d="M997.963 703.805H980.043V721.725H997.963V703.805Z" fill="black"/>
<path d="M1033.8 703.805H1015.88V721.725H1033.8V703.805Z" fill="black"/>
<path d="M1087.56 703.805H1069.64V721.725H1087.56V703.805Z" fill="black"/>
<path d="M1195.08 703.805H1177.16V721.725H1195.08V703.805Z" fill="black"/>
<path d="M1213 703.805H1195.08V721.725H1213V703.805Z" fill="black"/>
<path d="M782.922 721.734H765.002V739.654H782.922V721.734Z" fill="black"/>
<path d="M818.762 721.734H800.842V739.654H818.762V721.734Z" fill="black"/>
<path d="M854.604 721.734H836.684V739.654H854.604V721.734Z" fill="black"/>
<path d="M872.52 721.734H854.6V739.654H872.52V721.734Z" fill="black"/>
<path d="M890.438 721.734H872.518V739.654H890.438V721.734Z" fill="black"/>
<path d="M962.119 721.734H944.199V739.654H962.119V721.734Z" fill="black"/>
<path d="M997.963 721.734H980.043V739.654H997.963V721.734Z" fill="black"/>
<path d="M1033.8 721.734H1015.88V739.654H1033.8V721.734Z" fill="black"/>
<path d="M1051.72 721.734H1033.8V739.654H1051.72V721.734Z" fill="black"/>
<path d="M1069.63 721.734H1051.71V739.654H1069.63V721.734Z" fill="black"/>
<path d="M1087.56 721.734H1069.64V739.654H1087.56V721.734Z" fill="black"/>
<path d="M1105.48 721.734H1087.56V739.654H1105.48V721.734Z" fill="black"/>
<path d="M1123.4 721.734H1105.48V739.654H1123.4V721.734Z" fill="black"/>
<path d="M1141.32 721.734H1123.4V739.654H1141.32V721.734Z" fill="black"/>
<path d="M1159.24 721.734H1141.32V739.654H1159.24V721.734Z" fill="black"/>
<path d="M1213 721.734H1195.08V739.654H1213V721.734Z" fill="black"/>
<path d="M926.277 739.633H908.357V757.553H926.277V739.633Z" fill="black"/>
<path d="M944.205 739.633H926.285V757.553H944.205V739.633Z" fill="black"/>
<path d="M962.119 739.633H944.199V757.553H962.119V739.633Z" fill="black"/>
<path d="M1033.8 739.633H1015.88V757.553H1033.8V739.633Z" fill="black"/>
<path d="M1069.63 739.633H1051.71V757.553H1069.63V739.633Z" fill="black"/>
<path d="M1141.32 739.633H1123.4V757.553H1141.32V739.633Z" fill="black"/>
<path d="M1213 739.633H1195.08V757.553H1213V739.633Z" fill="black"/>
<path d="M926.277 757.562H908.357V775.483H926.277V757.562Z" fill="black"/>
<path d="M944.205 757.562H926.285V775.483H944.205V757.562Z" fill="black"/>
<path d="M980.035 757.562H962.115V775.483H980.035V757.562Z" fill="black"/>
<path d="M997.963 757.562H980.043V775.483H997.963V757.562Z" fill="black"/>
<path d="M1033.8 757.562H1015.88V775.483H1033.8V757.562Z" fill="black"/>
<path d="M1069.63 757.562H1051.71V775.483H1069.63V757.562Z" fill="black"/>
<path d="M1105.48 757.562H1087.56V775.483H1105.48V757.562Z" fill="black"/>
<path d="M1141.32 757.562H1123.4V775.483H1141.32V757.562Z" fill="black"/>
<path d="M1177.16 757.562H1159.24V775.483H1177.16V757.562Z" fill="black"/>
<path d="M1195.08 757.562H1177.16V775.483H1195.08V757.562Z" fill="black"/>
<path d="M1213 757.562H1195.08V775.483H1213V757.562Z" fill="black"/>
<path d="M944.205 775.461H926.285V793.381H944.205V775.461Z" fill="black"/>
<path d="M980.035 775.461H962.115V793.381H980.035V775.461Z" fill="black"/>
<path d="M1069.63 775.461H1051.71V793.381H1069.63V775.461Z" fill="black"/>
<path d="M1141.32 775.461H1123.4V793.381H1141.32V775.461Z" fill="black"/>
<path d="M1159.24 775.461H1141.32V793.381H1159.24V775.461Z" fill="black"/>
<path d="M926.277 793.406H908.357V811.326H926.277V793.406Z" fill="black"/>
<path d="M980.035 793.406H962.115V811.326H980.035V793.406Z" fill="black"/>
<path d="M997.963 793.406H980.043V811.326H997.963V793.406Z" fill="black"/>
<path d="M1033.8 793.406H1015.88V811.326H1033.8V793.406Z" fill="black"/>
<path d="M1069.63 793.406H1051.71V811.326H1069.63V793.406Z" fill="black"/>
<path d="M1087.56 793.406H1069.64V811.326H1087.56V793.406Z" fill="black"/>
<path d="M1105.48 793.406H1087.56V811.326H1105.48V793.406Z" fill="black"/>
<path d="M1123.4 793.406H1105.48V811.326H1123.4V793.406Z" fill="black"/>
<path d="M1141.32 793.406H1123.4V811.326H1141.32V793.406Z" fill="black"/>
<path d="M1159.24 793.406H1141.32V811.326H1159.24V793.406Z" fill="black"/>
<path d="M926.277 811.336H908.357V829.256H926.277V811.336Z" fill="black"/>
<path d="M944.205 811.336H926.285V829.256H944.205V811.336Z" fill="black"/>
<path d="M997.963 811.336H980.043V829.256H997.963V811.336Z" fill="black"/>
<path d="M1051.72 811.336H1033.8V829.256H1051.72V811.336Z" fill="black"/>
<path d="M1069.63 811.336H1051.71V829.256H1069.63V811.336Z" fill="black"/>
<path d="M1105.48 811.336H1087.56V829.256H1105.48V811.336Z" fill="black"/>
<path d="M1141.32 811.336H1123.4V829.256H1141.32V811.336Z" fill="black"/>
<path d="M1195.08 811.336H1177.16V829.256H1195.08V811.336Z" fill="black"/>
<path d="M1213 811.336H1195.08V829.256H1213V811.336Z" fill="black"/>
<path d="M926.277 829.234H908.357V847.154H926.277V829.234Z" fill="black"/>
<path d="M962.119 829.234H944.199V847.154H962.119V829.234Z" fill="black"/>
<path d="M997.963 829.234H980.043V847.154H997.963V829.234Z" fill="black"/>
<path d="M1033.8 829.234H1015.88V847.154H1033.8V829.234Z" fill="black"/>
<path d="M1141.32 829.234H1123.4V847.154H1141.32V829.234Z" fill="black"/>
<path d="M1177.16 829.234H1159.24V847.154H1177.16V829.234Z" fill="black"/>
<path d="M1213 829.234H1195.08V847.154H1213V829.234Z" fill="black"/>
<path d="M926.277 847.164H908.357V865.084H926.277V847.164Z" fill="black"/>
<path d="M944.205 847.164H926.285V865.084H944.205V847.164Z" fill="black"/>
<path d="M962.119 847.164H944.199V865.084H962.119V847.164Z" fill="black"/>
<path d="M997.963 847.164H980.043V865.084H997.963V847.164Z" fill="black"/>
<path d="M1015.88 847.164H997.957V865.084H1015.88V847.164Z" fill="black"/>
<path d="M1069.63 847.164H1051.71V865.084H1069.63V847.164Z" fill="black"/>
<path d="M1087.56 847.164H1069.64V865.084H1087.56V847.164Z" fill="black"/>
<path d="M1105.48 847.164H1087.56V865.084H1105.48V847.164Z" fill="black"/>
<path d="M1123.4 847.164H1105.48V865.084H1123.4V847.164Z" fill="black"/>
<path d="M1141.32 847.164H1123.4V865.084H1141.32V847.164Z" fill="black"/>
<path d="M1159.24 847.164H1141.32V865.084H1159.24V847.164Z" fill="black"/>
<path d="M1195.08 847.164H1177.16V865.084H1195.08V847.164Z" fill="black"/>
<path d="M926.277 865.062H908.357V882.983H926.277V865.062Z" fill="black"/>
<path d="M962.119 865.062H944.199V882.983H962.119V865.062Z" fill="black"/>
<path d="M997.963 865.062H980.043V882.983H997.963V865.062Z" fill="black"/>
<path d="M1015.88 865.062H997.957V882.983H1015.88V865.062Z" fill="black"/>
<path d="M1033.8 865.062H1015.88V882.983H1033.8V865.062Z" fill="black"/>
<path d="M1051.72 865.062H1033.8V882.983H1051.72V865.062Z" fill="black"/>
<path d="M1177.16 865.062H1159.24V882.983H1177.16V865.062Z" fill="black"/>
<path d="M1195.08 865.062H1177.16V882.983H1195.08V865.062Z" fill="black"/>
<path d="M1213 865.062H1195.08V882.983H1213V865.062Z" fill="black"/>
<g clip-path="url(#clip2_970_414)">
<path d="M768.795 434.992C766.699 434.992 764.979 436.713 764.979 438.809V452.93V470.85V488.77V506.69V524.61V542.53V556.651C764.979 558.748 766.681 560.468 768.795 560.468H886.637C888.734 560.468 890.454 558.766 890.454 556.651V542.53V524.61V506.69V488.77V470.85V452.93V438.809C890.454 436.713 888.752 434.992 886.637 434.992H768.795ZM872.516 470.85V488.77V506.69V524.61V540.344C872.516 541.562 871.531 542.53 870.33 542.53H785.103C783.884 542.53 782.916 541.544 782.916 540.344V524.61V506.69V488.77V470.85V455.116C782.916 453.898 783.902 452.93 785.103 452.93H870.33C871.549 452.93 872.516 453.916 872.516 455.116V470.85Z" fill="black"/>
</g>
<path d="M854.598 506.694V488.774V474.653C854.598 472.556 852.896 470.836 850.781 470.836H804.637C802.541 470.836 800.82 472.538 800.82 474.653V488.774V506.694V520.815C800.82 522.911 802.523 524.632 804.637 524.632H850.781C852.878 524.632 854.598 522.929 854.598 520.815V506.694Z" fill="black"/>
<g clip-path="url(#clip3_970_414)">
<path d="M1091.35 434.992C1089.26 434.992 1087.54 436.713 1087.54 438.809V452.93V470.85V488.77V506.69V524.61V542.53V556.651C1087.54 558.748 1089.24 560.468 1091.35 560.468H1209.19C1211.29 560.468 1213.01 558.766 1213.01 556.651V542.53V524.61V506.69V488.77V470.85V452.93V438.809C1213.01 436.713 1211.31 434.992 1209.19 434.992H1091.35ZM1195.07 470.85V488.77V506.69V524.61V540.344C1195.07 541.562 1194.09 542.53 1192.89 542.53H1107.66C1106.44 542.53 1105.47 541.544 1105.47 540.344V524.61V506.69V488.77V470.85V455.116C1105.47 453.898 1106.46 452.93 1107.66 452.93H1192.89C1194.11 452.93 1195.07 453.916 1195.07 455.116V470.85Z" fill="black"/>
</g>
<path d="M1177.15 506.694V488.774V474.653C1177.15 472.556 1175.45 470.836 1173.34 470.836H1127.19C1125.1 470.836 1123.38 472.538 1123.38 474.653V488.774V506.694V520.815C1123.38 522.911 1125.08 524.632 1127.19 524.632H1173.34C1175.43 524.632 1177.15 522.929 1177.15 520.815V506.694Z" fill="black"/>
<g clip-path="url(#clip4_970_414)">
<path d="M768.795 757.562C766.699 757.562 764.979 759.283 764.979 761.379V775.5V793.42V811.34V829.26V847.18V865.1V879.221C764.979 881.318 766.681 883.038 768.795 883.038H886.637C888.734 883.038 890.454 881.336 890.454 879.221V865.1V847.18V829.26V811.34V793.42V775.5V761.379C890.454 759.283 888.752 757.562 886.637 757.562H768.795ZM872.516 793.42V811.34V829.26V847.18V862.914C872.516 864.133 871.531 865.1 870.33 865.1H785.103C783.884 865.1 782.916 864.115 782.916 862.914V847.18V829.26V811.34V793.42V777.687C782.916 776.468 783.902 775.5 785.103 775.5H870.33C871.549 775.5 872.516 776.486 872.516 777.687V793.42Z" fill="black"/>
</g>
<path d="M854.598 829.264V811.344V797.223C854.598 795.127 852.896 793.406 850.781 793.406H804.637C802.541 793.406 800.82 795.109 800.82 797.223V811.344V829.264V843.385C800.82 845.482 802.523 847.202 804.637 847.202H850.781C852.878 847.202 854.598 845.5 854.598 843.385V829.264Z" fill="black"/>
</g>
</g>
<defs>
<clipPath id="clip0_970_414">
<rect width="560" height="560" fill="white" transform="translate(709 379)"/>
</clipPath>
<clipPath id="clip1_970_414">
<rect width="560" height="560" fill="white" transform="translate(709 379)"/>
</clipPath>
<clipPath id="clip2_970_414">
<rect width="125.44" height="125.44" fill="white" transform="translate(765.002 434.992)"/>
</clipPath>
<clipPath id="clip3_970_414">
<rect width="125.44" height="125.44" fill="white" transform="translate(1087.56 434.992)"/>
</clipPath>
<clipPath id="clip4_970_414">
<rect width="125.44" height="125.44" fill="white" transform="translate(765.002 757.562)"/>
</clipPath>
</defs>
</svg>
