<svg width="25" height="25" viewBox="0 0 25 25" fill="none" xmlns="http://www.w3.org/2000/svg">
<g filter="url(#filter0_f_663_2)">
<path d="M7.53672 19.4246L7.84561 19.6076C9.14293 20.3775 10.6304 20.7848 12.1473 20.7855H12.1505C16.809 20.7855 20.6002 16.9951 20.6021 12.3364C20.6029 10.0789 19.7246 7.95591 18.1289 6.35896C17.3463 5.57139 16.4152 4.94688 15.3896 4.52158C14.3639 4.09628 13.2641 3.87864 12.1538 3.88125C7.4918 3.88125 3.70046 7.67121 3.6988 12.3296C3.6965 13.9204 4.14446 15.4793 4.99087 16.8261L5.19195 17.1456L4.33799 20.2632L7.53672 19.4246ZM1.89648 22.6785L3.33919 17.411C2.44944 15.8695 1.98134 14.1206 1.98189 12.329C1.98424 6.72396 6.54552 2.16406 12.1507 2.16406C14.8706 2.16544 17.4237 3.22395 19.3438 5.1454C21.2638 7.06684 22.3202 9.62085 22.3193 12.3371C22.3168 17.9417 17.7548 22.5024 12.1505 22.5024H12.1461C10.4444 22.5017 8.77226 22.0748 7.28699 21.2649L1.89648 22.6785Z" fill="#B3B3B3"/>
</g>
<path d="M1.79199 22.5769L3.2347 17.3094C2.34341 15.7642 1.87525 14.0113 1.8774 12.2274C1.87975 6.6224 6.44103 2.0625 12.0462 2.0625C14.7662 2.06388 17.3192 3.12239 19.2393 5.04383C21.1593 6.96528 22.2158 9.51929 22.2148 12.2355C22.2123 17.8401 17.6503 22.4009 12.046 22.4009H12.0416C10.3399 22.4002 8.66777 21.9732 7.18249 21.1634L1.79199 22.5769Z" fill="white"/>
<path d="M12.0498 3.77346C7.38774 3.77346 3.59639 7.56342 3.59474 12.2219C3.59244 13.8126 4.04039 15.3715 4.8868 16.7183L5.08789 17.038L4.23393 20.1556L7.43279 19.3168L7.74168 19.4998C9.039 20.2697 10.5265 20.6769 12.0434 20.6777H12.0466C16.705 20.6777 20.4964 16.8873 20.4982 12.2286C20.5017 11.1182 20.2849 10.0182 19.8604 8.99215C19.4359 7.96612 18.812 7.03448 18.025 6.25118C17.2424 5.46359 16.3112 4.83907 15.2856 4.41377C14.2599 3.98847 13.1601 3.77083 12.0498 3.77346Z" fill="url(#paint0_linear_663_2)"/>
<path fill-rule="evenodd" clip-rule="evenodd" d="M9.5045 7.97613C9.31406 7.55309 9.11366 7.54452 8.93275 7.53719L8.44572 7.53125C8.27629 7.53125 8.00098 7.59482 7.76825 7.84912C7.53551 8.10341 6.87891 8.71801 6.87891 9.96806C6.87891 11.2181 7.78939 12.426 7.91626 12.5957C8.04314 12.7654 9.67394 15.4125 12.2566 16.4309C14.4027 17.2772 14.8394 17.1089 15.3055 17.0666C15.7715 17.0243 16.8087 16.452 17.0203 15.8587C17.2319 15.2654 17.232 14.7571 17.1686 14.6508C17.1052 14.5445 16.9357 14.4814 16.6814 14.3542C16.4271 14.2271 15.1782 13.6125 14.9453 13.5276C14.7124 13.4428 14.5431 13.4006 14.3736 13.6549C14.204 13.9092 13.7176 14.4812 13.5694 14.6508C13.4211 14.8204 13.273 14.8417 13.0187 14.7147C12.7645 14.5877 11.9463 14.3193 10.9755 13.4537C10.2203 12.7802 9.71043 11.9485 9.562 11.6944C9.41357 11.4402 9.54624 11.3026 9.67366 11.176C9.78768 11.0621 9.92768 10.8792 10.055 10.7309C10.1823 10.5827 10.2241 10.4767 10.3087 10.3074C10.3933 10.1381 10.3511 9.98934 10.2876 9.86233C10.224 9.73532 9.73033 8.47864 9.5045 7.97613Z" fill="white"/>
<defs>
<filter id="filter0_f_663_2" x="0.920489" y="1.18807" width="22.3748" height="22.4676" filterUnits="userSpaceOnUse" color-interpolation-filters="sRGB">
<feFlood flood-opacity="0" result="BackgroundImageFix"/>
<feBlend mode="normal" in="SourceGraphic" in2="BackgroundImageFix" result="shape"/>
<feGaussianBlur stdDeviation="0.487998" result="effect1_foregroundBlur_663_2"/>
</filter>
<linearGradient id="paint0_linear_663_2" x1="11.8744" y1="4.78788" x2="11.9601" y2="19.2336" gradientUnits="userSpaceOnUse">
<stop stop-color="#57D163"/>
<stop offset="1" stop-color="#23B33A"/>
</linearGradient>
</defs>
</svg>
